# xmcd
#
# Track frame offsets: 
#        150
#        17250
#        34191
#        49975
#        64560
#        80240
#        94189
#        110816
#        125107
#        139411
#        155314
#        169095
#
# Disc length: 2454 seconds
#
# Revision: 0
# Processed by: cddbd v1.5.1PL2 Copyright (c) Steve Scherf et al.
# Submitted via: ExactAudioCopy v0.95b3
#
DISCID=a609940c
DTITLE=Orawee Sujjanon - Kwun Muang Vol 2
DYEAR=2002
DGENRE=Country
TTITLE0=Fark pleng tung ter
TTITLE1=Toong ruk song rao
TTITLE2=Sunya ruk Park-chong
TTITLE3=Nong kid tung pee
TTITLE4=Duang jun mai mee
TTITLE5=Nok rong nong chum
TTITLE6=Sao kruan jark suan taeng
TTITLE7=Tua klai jai ngao
TTITLE8=Arthit la wun
TTITLE9=Thung nang koi
TTITLE10=Ruk lah yah srao
TTITLE11=Yood korn poo chai jao choo
EXTD=
EXTT0=
EXTT1=
EXTT2=
EXTT3=
EXTT4=
EXTT5=
EXTT6=
EXTT7=
EXTT8=
EXTT9=
EXTT10=
EXTT11=
PLAYORDER=
